<?xml version="1.0" encoding="UTF-8"?> <svg xmlns="http://www.w3.org/2000/svg" id="CloudMonsters_-_white" data-name="CloudMonsters - white" width="170.097" height="41.929" viewBox="0 0 170.097 41.929"><g id="Group_7" data-name="Group 7" transform="translate(1.048 23.978)"><path id="Path_15" data-name="Path 15" d="M1.98,46.05H6.171L9.8,53.237l3.63,7.329,3.678-7.329,3.6-7.187h4.144V63.217h-2.72V54.66l.026-6.181L19.1,54.66l-4.292,8.557H11.987L7.674,54.66,4.584,48.431,4.61,54.66l.026,8.557H1.98V46.05Z" transform="translate(-1.98 -45.658)" fill="#fff"></path><path id="Path_16" data-name="Path 16" d="M48.39,54.285c0-5.393,4.853-8.975,11.23-8.975s11.23,3.583,11.23,8.975-4.805,8.975-11.23,8.975S48.39,59.7,48.39,54.285Zm19.639,0c0-4.022-3.509-6.843-8.409-6.843s-8.388,2.821-8.388,6.843,3.509,6.843,8.388,6.843S68.029,58.307,68.029,54.285Z" transform="translate(-23.83 -45.31)" fill="#fff"></path><path id="Path_17" data-name="Path 17" d="M94.01,46.05h3.26l6.594,7.038,6.573,7.113-.026-7.134V46.055h2.551V63.223h-3.286l-6.594-7.012L96.534,49.1l.026,7.113v7.012H94.01V46.055Z" transform="translate(-45.307 -45.658)" fill="#fff"></path><path id="Path_18" data-name="Path 18" d="M132.986,56.757H135.9c.81,2.942,3.334,4.461,7.673,4.461s6.4-1.175,6.4-2.969c0-2.307-3.6-2.577-7.456-2.895-4.488-.392-9.293-.836-9.293-4.657,0-3.064,3.286-5.3,8.875-5.3s9.785,2.376,10.69,6.451h-2.747c-.783-2.794-3.652-4.414-7.875-4.414-3.974,0-6.107,1.249-6.107,2.916,0,2.233,3.456,2.551,7.261,2.868,4.535.418,9.515.857,9.515,4.683,0,3.186-3.286,5.345-9.2,5.345s-9.684-2.281-10.669-6.5Z" transform="translate(-63.649 -45.352)" fill="#fff"></path><path id="Path_19" data-name="Path 19" d="M179.093,48.135H170.07V46.05h20.867v2.085h-9.023V63.217h-2.821Z" transform="translate(-81.116 -45.658)" fill="#fff"></path><path id="Path_20" data-name="Path 20" d="M211.35,46.045h17.093V48.13H214.15V53.4h10.3v2.085h-10.3v5.662h14.294v2.059H211.35V46.04Z" transform="translate(-100.55 -45.654)" fill="#fff"></path><path id="Path_21" data-name="Path 21" d="M245.83,46.05h12.9c3.726,0,6.107,1.768,6.107,4.731a4.342,4.342,0,0,1-3.165,4.244c1.619.392,2.429,1.4,2.5,3.387a12.882,12.882,0,0,0,.783,4.805H262.04a12.322,12.322,0,0,1-.64-4.636c-.026-1.937-.958-2.551-3.091-2.551h-9.684v7.187H245.83V46.05Zm2.794,2.085v5.837h9.859c2.207,0,3.583-1.106,3.583-2.942s-1.376-2.895-3.583-2.895h-9.859Z" transform="translate(-116.783 -45.658)" fill="#fff"></path><path id="Path_22" data-name="Path 22" d="M283.9,56.757h2.916c.81,2.942,3.334,4.461,7.674,4.461s6.4-1.175,6.4-2.969c0-2.307-3.6-2.577-7.456-2.895-4.488-.392-9.293-.836-9.293-4.657,0-3.064,3.286-5.3,8.875-5.3s9.785,2.376,10.69,6.451h-2.747c-.783-2.794-3.651-4.414-7.875-4.414-3.974,0-6.107,1.249-6.107,2.916,0,2.233,3.456,2.551,7.261,2.868,4.535.418,9.515.857,9.515,4.683,0,3.186-3.286,5.345-9.2,5.345s-9.684-2.281-10.669-6.5Z" transform="translate(-134.697 -45.352)" fill="#fff"></path></g><g id="Group_10" data-name="Group 10"><g id="Group_8" data-name="Group 8" transform="translate(0 0.529)"><path id="Path_23" data-name="Path 23" d="M149.34,10.747V1.92h6.276v8.928c0,2.773,2.106,4.313,5.054,4.313s5.054-1.545,5.054-4.292V1.92h6.128v8.827c0,5.594-4.339,8.78-11.277,8.78s-11.23-3.212-11.23-8.78Z" transform="translate(-70.308 -1.433)" fill="#fff"></path><path id="Path_24" data-name="Path 24" d="M196.16,1.92h11.182c6.964,0,11.722,3.286,11.722,8.584s-4.805,8.584-11.722,8.584H196.16Zm6.276,4.123v8.975h4.514c3.556,0,5.641-1.572,5.641-4.461s-2.085-4.514-5.641-4.514h-4.514Z" transform="translate(-92.351 -1.433)" fill="#fff"></path><path id="Path_25" data-name="Path 25" d="M18.268,8.97c-.54-2.307-2.942-3.726-5.858-3.726C8.9,5.244,6.5,7.059,6.5,10.1s2.4,4.805,5.885,4.805c2.99,0,5.419-1.471,5.911-3.853h6.324c-.662,4.858-5.662,8.092-12.357,8.092C5.054,19.146,0,15.537,0,10.1S5.054,1,12.283,1C18.9,1,23.9,4.165,24.619,8.97h-6.35Z" transform="translate(0 -1)" fill="#fff"></path><path id="Path_26" data-name="Path 26" d="M49.41,1.92h6.276V15.065H69.3v4.022H49.41Z" transform="translate(-23.262 -1.433)" fill="#fff"></path></g><g id="Group_9" data-name="Group 9" transform="translate(47.618)"><path id="Path_27" data-name="Path 27" d="M112.773,4.583c-.143,0-.831,0-.963.011A8.213,8.213,0,0,0,104.438,0a8.085,8.085,0,0,0-7.324,4.588c-.064,0-.714.005-.778.011a6.824,6.824,0,0,0-6.356,6.8A6.926,6.926,0,0,0,96.8,18.215h15.977a6.816,6.816,0,0,0,0-13.632Zm-.6,9.669H97.4c-1.212,0-2.2-1.26-2.2-2.8a2.549,2.549,0,0,1,2.2-2.794H112.36c1.111-.011,2.011,1.328,2.011,2.794C114.371,12.992,113.387,14.251,112.175,14.251Z" transform="translate(-89.98)" fill="#fff"></path><path id="Path_28" data-name="Path 28" d="M104.567,19.14a1.217,1.217,0,1,0,1.217,1.217A1.217,1.217,0,0,0,104.567,19.14Z" transform="translate(-96.275 -9.011)" fill="#fff"></path></g></g></svg> 